<svg xmlns="http://www.w3.org/2000/svg" xmlns:xlink="http://www.w3.org/1999/xlink" width="128" zoomAndPan="magnify" viewBox="0 0 96 95.999999" height="128" preserveAspectRatio="xMidYMid meet" version="1.0"><defs><clipPath id="5b5d893bc4"><path d="M 0.0078125 0 L 96 0 L 96 96 L 0.0078125 96 Z M 0.0078125 0 " clip-rule="nonzero"/></clipPath><clipPath id="2900734ed9"><path d="M 96 15.738281 L 96 80.25 C 96 88.949219 88.949219 96 80.25 96 L 15.757812 96 C 7.058594 96 0.0078125 88.949219 0.0078125 80.25 L 0.0078125 15.738281 C 0.0078125 7.039062 7.058594 -0.0117188 15.757812 -0.0117188 L 80.25 -0.0117188 C 88.949219 -0.0117188 96 7.039062 96 15.738281 Z M 96 15.738281 " clip-rule="nonzero"/></clipPath><clipPath id="0525a86fc1"><path d="M 0.0078125 0 L 96 0 L 96 96 L 0.0078125 96 Z M 0.0078125 0 " clip-rule="nonzero"/></clipPath><clipPath id="616c5b7ff9"><path d="M 96 15.738281 L 96 80.25 C 96 88.949219 88.949219 96 80.25 96 L 15.757812 96 C 7.058594 96 0.0078125 88.949219 0.0078125 80.25 L 0.0078125 15.738281 C 0.0078125 7.039062 7.058594 -0.0117188 15.757812 -0.0117188 L 80.25 -0.0117188 C 88.949219 -0.0117188 96 7.039062 96 15.738281 Z M 96 15.738281 " clip-rule="nonzero"/></clipPath><clipPath id="5c225c4da9"><rect x="0" width="96" y="0" height="96"/></clipPath><clipPath id="81e4dba036"><path d="M 21.046875 11.667969 L 75 11.667969 L 75 84.417969 L 21.046875 84.417969 Z M 21.046875 11.667969 " clip-rule="nonzero"/></clipPath><clipPath id="2d38a4ec8c"><path d="M 21.046875 15.417969 L 21.046875 80.582031 C 21.046875 82.652344 22.726562 84.332031 24.796875 84.332031 L 71.210938 84.332031 C 73.28125 84.332031 74.960938 82.652344 74.960938 80.582031 L 74.960938 15.417969 C 74.960938 13.347656 73.28125 11.667969 71.210938 11.667969 L 24.796875 11.667969 C 22.726562 11.667969 21.046875 13.347656 21.046875 15.417969 Z M 21.046875 15.417969 " clip-rule="nonzero"/></clipPath></defs><g clip-path="url(#5b5d893bc4)"><g clip-path="url(#2900734ed9)"><g transform="matrix(1, 0, 0, 1, 0, -0.000000000000008101)"><g clip-path="url(#5c225c4da9)"><g clip-path="url(#0525a86fc1)"><g clip-path="url(#616c5b7ff9)"><path fill="#231b1a" d="M 0.0078125 -0.0117188 L 96 -0.0117188 L 96 95.980469 L 0.0078125 95.980469 Z M 0.0078125 -0.0117188 " fill-opacity="1" fill-rule="nonzero"/></g></g></g></g></g></g><g clip-path="url(#81e4dba036)"><g clip-path="url(#2d38a4ec8c)"><path fill="#f5eee4" d="M 9.726562 -1.40625 L 9.320312 -1.113281 C 9.320312 -1.210938 9.316406 -1.308594 9.316406 -1.40625 Z M 334.554688 57.113281 L 334.554688 27.46875 C 334.554688 24.941406 334.542969 22.828125 334.53125 21.121094 C 334.519531 19.417969 334.503906 18.003906 334.492188 16.855469 C 334.480469 15.699219 334.464844 14.726562 334.4375 13.9375 C 334.410156 13.148438 334.355469 12.382812 334.320312 11.679688 C 334.28125 10.578125 334.132812 9.488281 333.875 8.421875 C 333.710938 7.648438 333.285156 6.953125 332.667969 6.457031 C 331.921875 5.96875 331.042969 5.710938 330.148438 5.707031 C 329.871094 5.683594 329.488281 5.683594 329.085938 5.683594 C 328.6875 5.683594 328.269531 5.71875 327.832031 5.730469 C 327.390625 5.742188 327.035156 5.773438 326.714844 5.796875 C 326.511719 5.804688 326.316406 5.714844 326.1875 5.550781 C 326.03125 5.390625 325.941406 5.175781 325.933594 4.953125 C 325.910156 4.648438 326.054688 4.359375 326.304688 4.195312 C 326.675781 3.980469 327.085938 3.859375 327.511719 3.839844 C 328.664062 3.726562 329.902344 3.605469 331.195312 3.488281 C 332.488281 3.371094 333.714844 3.25 334.917969 3.160156 C 336.121094 3.074219 337.121094 2.980469 337.9375 2.914062 C 338.75 2.847656 339.253906 2.820312 339.410156 2.804688 C 339.566406 2.789062 340.230469 2.710938 341.378906 2.585938 C 342.527344 2.460938 344 2.296875 345.820312 2.109375 C 347.636719 1.921875 349.585938 1.71875 351.714844 1.480469 C 353.84375 1.246094 355.878906 1.039062 357.910156 0.8125 C 359.941406 0.585938 361.710938 0.371094 363.1875 0.207031 C 364.660156 0.0390625 365.671875 -0.0820312 366.140625 -0.171875 C 367.320312 -0.394531 368.394531 -0.644531 369.386719 -0.910156 C 370.375 -1.171875 371.117188 -1.359375 371.613281 -1.523438 C 371.914062 -1.636719 372.191406 -1.789062 372.449219 -1.96875 C 372.703125 -2.140625 372.988281 -2.257812 373.285156 -2.320312 C 373.488281 -2.347656 373.640625 -2.210938 373.726562 -1.96875 C 373.816406 -1.710938 373.859375 -1.4375 373.84375 -1.164062 C 373.78125 -0.488281 373.65625 0.179688 373.464844 0.835938 C 373.167969 2.171875 372.964844 3.53125 372.871094 4.898438 C 372.84375 5.21875 372.785156 5.742188 372.730469 6.492188 C 372.671875 7.242188 372.621094 8.035156 372.566406 8.960938 C 372.507812 9.882812 372.449219 10.742188 372.382812 11.503906 C 372.316406 12.269531 372.246094 12.867188 372.171875 13.269531 C 372.105469 13.597656 371.972656 13.914062 371.777344 14.191406 C 371.628906 14.457031 371.371094 14.640625 371.070312 14.691406 C 370.777344 14.742188 370.480469 14.601562 370.332031 14.339844 C 370.160156 13.96875 370.078125 13.5625 370.097656 13.15625 C 370.09375 12.492188 370.050781 11.828125 369.96875 11.167969 C 369.882812 10.351562 369.695312 9.546875 369.414062 8.773438 C 369.195312 8.140625 368.800781 7.585938 368.277344 7.164062 C 367.539062 6.664062 366.6875 6.34375 365.800781 6.226562 C 364.199219 5.976562 362.578125 5.824219 360.949219 5.785156 C 360.527344 5.765625 359.730469 5.785156 358.578125 5.851562 C 357.429688 5.917969 356.105469 6.023438 354.652344 6.121094 C 353.195312 6.21875 351.722656 6.355469 350.324219 6.472656 C 348.925781 6.59375 347.722656 6.691406 346.703125 6.785156 L 344.773438 6.960938 C 344.554688 6.964844 344.355469 7.105469 344.28125 7.3125 C 344.191406 7.628906 344.148438 7.953125 344.164062 8.277344 L 344.164062 24.410156 C 344.164062 29.777344 344.179688 35.148438 344.164062 40.515625 C 344.148438 40.828125 344.175781 41.140625 344.246094 41.445312 C 344.324219 41.664062 344.546875 41.796875 344.777344 41.761719 C 348.1875 41.894531 351.59375 41.5625 354.90625 40.78125 C 355.757812 40.589844 356.53125 40.136719 357.105469 39.484375 C 357.5 39.035156 357.816406 38.652344 358.097656 38.332031 C 358.265625 38.089844 358.519531 37.921875 358.804688 37.859375 C 358.992188 37.84375 359.175781 37.929688 359.285156 38.082031 C 359.425781 38.308594 359.496094 38.578125 359.464844 38.847656 C 359.390625 39.570312 359.277344 40.285156 359.113281 40.992188 C 358.84375 42.535156 358.65625 44.089844 358.546875 45.648438 C 358.476562 46.488281 358.355469 47.507812 358.28125 48.605469 C 358.207031 49.699219 358.160156 50.738281 358.109375 51.675781 C 358.054688 52.613281 358.027344 53.21875 358.027344 53.570312 C 358.035156 54.089844 357.960938 54.605469 357.804688 55.097656 C 357.640625 55.585938 357.367188 55.859375 356.984375 55.859375 C 356.746094 55.875 356.519531 55.753906 356.398438 55.546875 C 356.257812 55.292969 356.191406 55.003906 356.203125 54.710938 C 356.21875 54.09375 356.199219 53.480469 356.144531 52.867188 C 356.054688 52.128906 355.910156 51.398438 355.691406 50.6875 C 355.558594 50.117188 355.316406 49.578125 354.984375 49.09375 C 352.328125 45.445312 348.589844 46.464844 344.917969 46.503906 C 344.6875 46.480469 344.464844 46.578125 344.328125 46.765625 C 344.222656 46.941406 344.171875 47.144531 344.175781 47.351562 L 344.175781 57.257812 C 344.175781 58.097656 344.179688 59.21875 344.15625 60.683594 C 344.132812 62.144531 344.152344 63.714844 344.132812 65.441406 C 344.109375 67.167969 344.121094 68.871094 344.109375 70.519531 C 344.097656 72.164062 344.121094 73.613281 344.132812 74.871094 C 344.140625 76.125 344.175781 76.980469 344.175781 77.492188 C 344.179688 79.140625 344.386719 80.78125 344.792969 82.378906 C 345.105469 83.566406 345.777344 84.632812 346.722656 85.417969 C 347.890625 86.28125 349.238281 86.871094 350.664062 87.136719 C 352.898438 87.613281 355.160156 87.925781 357.441406 88.070312 C 358.457031 88.148438 359.695312 88.253906 361.113281 88.328125 C 362.542969 88.402344 363.976562 88.402344 365.402344 88.328125 C 366.691406 88.292969 367.964844 88.082031 369.191406 87.699219 C 370.183594 87.347656 371.097656 86.808594 371.875 86.101562 C 372.660156 85.363281 373.277344 84.457031 373.679688 83.457031 C 374.199219 82.128906 374.554688 80.738281 374.738281 79.328125 C 374.792969 78.792969 374.949219 78.28125 375.207031 77.8125 C 375.378906 77.546875 375.699219 77.402344 376.007812 77.460938 C 376.363281 77.503906 376.640625 77.773438 376.691406 78.121094 C 376.808594 78.554688 376.867188 79.003906 376.859375 79.453125 C 376.859375 79.707031 376.804688 80.339844 376.691406 81.367188 C 376.578125 82.390625 376.449219 83.558594 376.265625 84.894531 C 376.078125 86.226562 375.910156 87.539062 375.726562 88.746094 C 375.542969 89.949219 375.34375 90.910156 375.167969 91.617188 C 375.015625 92.4375 374.636719 93.203125 374.070312 93.820312 C 373.496094 94.289062 372.769531 94.523438 372.023438 94.480469 C 370.8125 94.46875 369.59375 94.398438 368.382812 94.261719 C 363.910156 93.839844 359.992188 93.402344 356.707031 93.003906 C 353.421875 92.605469 350.683594 92.292969 348.386719 91.972656 C 346.085938 91.652344 344.210938 91.363281 342.773438 91.195312 C 341.335938 91.03125 340.230469 90.933594 339.449219 90.863281 L 337.9375 90.75 C 337.082031 90.6875 336.101562 90.628906 334.9375 90.59375 C 333.929688 90.5625 332.867188 90.523438 331.832031 90.484375 C 330.800781 90.445312 329.855469 90.386719 329.03125 90.308594 C 328.617188 90.292969 328.21875 90.179688 327.859375 89.984375 C 327.59375 89.828125 327.429688 89.539062 327.441406 89.226562 C 327.441406 89.011719 327.507812 88.792969 327.628906 88.617188 C 327.769531 88.425781 328.003906 88.332031 328.238281 88.367188 C 328.753906 88.378906 329.265625 88.351562 329.777344 88.273438 C 330.332031 88.191406 330.847656 88.148438 331.332031 88.09375 C 331.933594 88.039062 332.472656 87.707031 332.792969 87.203125 C 333.167969 86.578125 333.417969 85.894531 333.53125 85.179688 C 333.699219 84.308594 333.859375 83.320312 333.996094 82.191406 C 334.195312 80.59375 334.332031 78.578125 334.40625 76.082031 C 334.476562 73.585938 334.535156 70.742188 334.558594 67.535156 C 334.585938 64.332031 334.585938 60.875 334.585938 57.121094 Z M -280.148438 36.578125 C -280.148438 43.011719 -280.148438 49.445312 -280.148438 55.871094 C -280.148438 59.410156 -280.121094 62.65625 -280.097656 65.679688 C -280.070312 68.707031 -280.019531 71.402344 -279.941406 73.730469 C -279.863281 76.058594 -279.765625 77.984375 -279.625 79.492188 C -279.542969 80.417969 -279.410156 81.34375 -279.222656 82.253906 C -279.097656 82.960938 -278.777344 83.617188 -278.292969 84.140625 C -277.710938 84.648438 -276.96875 84.933594 -276.199219 84.949219 C -275.761719 84.992188 -275.28125 85.042969 -274.742188 85.066406 C -274.203125 85.089844 -273.660156 85.105469 -273.203125 85.105469 C -272.746094 85.109375 -272.378906 85.082031 -272.113281 85.066406 C -271.867188 85.019531 -271.617188 85.105469 -271.457031 85.292969 C -271.332031 85.460938 -271.269531 85.664062 -271.277344 85.867188 C -271.285156 86.140625 -271.429688 86.386719 -271.664062 86.527344 C -272.019531 86.742188 -272.425781 86.867188 -272.84375 86.882812 C -274.113281 87.023438 -275.351562 87.144531 -276.671875 87.234375 C -277.992188 87.320312 -279.203125 87.390625 -280.328125 87.464844 C -281.449219 87.539062 -282.363281 87.597656 -283.136719 87.625 C -283.910156 87.652344 -284.390625 87.683594 -284.515625 87.695312 C -284.640625 87.707031 -285.085938 87.777344 -285.804688 87.894531 C -286.527344 88.007812 -287.40625 88.136719 -288.425781 88.28125 L -291.578125 88.730469 C -292.625 88.878906 -293.558594 88.980469 -294.335938 89.058594 C -294.746094 89.132812 -295.175781 89.105469 -295.578125 88.976562 C -295.835938 88.863281 -295.988281 88.585938 -295.960938 88.304688 C -295.960938 88.074219 -295.894531 87.851562 -295.769531 87.660156 C -295.628906 87.453125 -295.398438 87.320312 -295.152344 87.308594 C -294.644531 87.246094 -294.140625 87.148438 -293.652344 87.011719 C -293.101562 86.847656 -292.613281 86.660156 -292.148438 86.492188 C -291.5 86.277344 -290.949219 85.847656 -290.589844 85.269531 C -290.210938 84.605469 -289.949219 83.886719 -289.820312 83.132812 C -289.636719 82.15625 -289.503906 81.171875 -289.425781 80.179688 C -289.207031 77.832031 -289.078125 74.621094 -289.027344 70.574219 C -288.972656 66.519531 -288.972656 61.765625 -288.972656 56.355469 C -288.972656 52.636719 -288.972656 48.914062 -288.972656 45.1875 C -288.949219 45 -289.003906 44.8125 -289.125 44.664062 C -289.238281 44.570312 -289.386719 44.523438 -289.535156 44.53125 L -311.375 44.398438 L -335.648438 44.25 C -335.824219 44.238281 -336.003906 44.285156 -336.148438 44.386719 C -336.292969 44.546875 -336.359375 44.757812 -336.335938 44.96875 C -336.335938 49.121094 -336.335938 53.277344 -336.335938 57.421875 C -336.355469 63.46875 -336.332031 68.773438 -336.277344 73.339844 C -336.21875 77.90625 -336.070312 81.453125 -335.792969 84.046875 C -335.691406 85.105469 -335.511719 86.160156 -335.257812 87.191406 C -335.066406 88.007812 -334.628906 88.746094 -334.003906 89.304688 C -333.238281 89.878906 -332.3125 90.191406 -331.359375 90.199219 C -330.746094 90.242188 -330.101562 90.277344 -329.398438 90.300781 C -328.699219 90.324219 -328.011719 90.324219 -327.414062 90.324219 C -326.816406 90.324219 -326.300781 90.285156 -325.945312 90.257812 C -325.679688 90.210938 -325.410156 90.3125 -325.238281 90.519531 C -325.089844 90.703125 -325.007812 90.933594 -325.007812 91.167969 C -325.011719 91.46875 -325.167969 91.757812 -325.429688 91.917969 C -325.867188 92.179688 -326.367188 92.328125 -326.878906 92.339844 C -328.539062 92.511719 -330.238281 92.675781 -331.933594 92.796875 C -333.628906 92.921875 -335.191406 93.019531 -336.679688 93.121094 C -338.164062 93.222656 -339.378906 93.304688 -340.335938 93.347656 C -341.289062 93.386719 -341.808594 93.417969 -342.027344 93.4375 C -342.246094 93.460938 -342.78125 93.550781 -343.757812 93.6875 C -344.734375 93.824219 -345.839844 93.996094 -347.210938 94.179688 C -348.585938 94.363281 -349.945312 94.558594 -351.335938 94.746094 C -352.722656 94.933594 -353.953125 95.070312 -355.015625 95.175781 C -355.539062 95.257812 -356.070312 95.234375 -356.585938 95.097656 C -356.929688 95.011719 -357.164062 94.691406 -357.148438 94.335938 C -357.140625 94.070312 -357.050781 93.808594 -356.894531 93.59375 C -356.695312 93.332031 -356.390625 93.175781 -356.066406 93.160156 C -355.375 93.078125 -354.695312 92.957031 -354.027344 92.785156 C -353.296875 92.601562 -352.613281 92.375 -351.988281 92.164062 C -351.226562 91.925781 -350.566406 91.445312 -350.109375 90.796875 C -349.640625 90.066406 -349.316406 89.25 -349.164062 88.398438 C -348.960938 87.449219 -348.746094 86.328125 -348.582031 85.066406 C -348.34375 83.269531 -348.152344 81.019531 -348.054688 78.265625 C -347.957031 75.507812 -347.878906 72.363281 -347.859375 68.835938 C -347.84375 65.3125 -347.84375 61.503906 -347.84375 57.371094 C -347.84375 49.875 -347.84375 32.285156 -347.84375 24.765625 C -347.84375 21.984375 -347.855469 19.675781 -347.867188 17.78125 C -347.878906 15.882812 -347.898438 14.308594 -347.910156 13.0625 C -347.921875 11.820312 -347.945312 10.746094 -347.980469 9.863281 C -348.015625 8.976562 -348.09375 8.125 -348.140625 7.335938 C -348.191406 6.09375 -348.378906 4.855469 -348.703125 3.652344 C -348.941406 2.695312 -349.476562 1.832031 -350.230469 1.1875 C -351.191406 0.460938 -352.308594 -0.0390625 -353.5 -0.273438 C -353.835938 -0.359375 -354.367188 -0.460938 -354.898438 -0.558594 C -355.429688 -0.660156 -355.976562 -0.734375 -356.566406 -0.835938 C -357.160156 -0.933594 -357.632812 -0.980469 -358.070312 -1.035156 C -358.347656 -1.089844 -358.597656 -1.242188 -358.78125 -1.460938 C -358.988281 -1.660156 -359.117188 -1.929688 -359.132812 -2.21875 C -359.175781 -2.566406 -358.964844 -2.890625 -358.628906 -2.988281 C -358.097656 -3.140625 -357.542969 -3.171875 -356.996094 -3.082031 C -355.4375 -2.921875 -353.816406 -2.707031 -352.144531 -2.507812 C -350.476562 -2.3125 -348.929688 -2.128906 -347.453125 -1.921875 C -345.976562 -1.71875 -344.777344 -1.570312 -343.796875 -1.445312 C -342.816406 -1.324219 -342.199219 -1.226562 -342.027344 -1.207031 C -341.859375 -1.191406 -341.300781 -1.164062 -340.375 -1.097656 C -339.453125 -1.023438 -338.363281 -0.933594 -337.082031 -0.847656 C -335.800781 -0.761719 -334.5 -0.648438 -333.21875 -0.542969 C -331.9375 -0.433594 -330.820312 -0.355469 -329.863281 -0.257812 C -329.351562 -0.226562 -328.855469 -0.0898438 -328.40625 0.148438 C -328.117188 0.316406 -327.945312 0.628906 -327.964844 0.960938 C -327.980469 1.210938 -328.097656 1.441406 -328.292969 1.601562 C -328.457031 1.773438 -328.683594 1.871094 -328.925781 1.871094 C -329.304688 1.84375 -329.738281 1.769531 -330.210938 1.769531 C -330.78125 1.765625 -331.351562 1.792969 -331.921875 1.859375 C -332.828125 1.914062 -333.707031 2.210938 -334.453125 2.734375 C -335.078125 3.261719 -335.519531 3.976562 -335.707031 4.773438 C -336.011719 5.925781 -336.183594 7.109375 -336.21875 8.300781 C -336.25 9.066406 -336.265625 9.867188 -336.289062 10.769531 C -336.316406 11.671875 -336.324219 12.703125 -336.34375 13.964844 C -336.359375 15.226562 -336.359375 16.792969 -336.359375 18.648438 C -336.359375 20.503906 -336.359375 35.300781 -336.359375 38.035156 C -336.359375 38.382812 -336.292969 38.605469 -336.175781 38.679688 C -336.019531 38.761719 -335.847656 38.796875 -335.675781 38.78125 C -327.285156 38.902344 -319.183594 39.078125 -311.398438 39.214844 C -303.882812 39.347656 -296.589844 39.457031 -289.5625 39.605469 C -289.417969 39.621094 -289.273438 39.597656 -289.152344 39.53125 C -289.050781 39.460938 -289 39.269531 -289 38.960938 L -289 36.59375 C -289 33.136719 -288.988281 30.195312 -289 27.746094 C -289.007812 25.296875 -289.023438 23.25 -289.035156 21.566406 C -289.042969 19.882812 -289.078125 18.476562 -289.097656 17.363281 C -289.117188 16.25 -289.136719 15.273438 -289.152344 14.488281 C -289.164062 13.703125 -289.199219 12.953125 -289.230469 12.265625 C -289.25 11.183594 -289.382812 10.109375 -289.613281 9.050781 C -289.785156 8.25 -290.179688 7.519531 -290.757812 6.933594 C -291.453125 6.324219 -292.296875 5.894531 -293.210938 5.699219 C -293.480469 5.628906 -293.875 5.546875 -294.269531 5.464844 C -294.667969 5.386719 -295.09375 5.328125 -295.539062 5.242188 C -295.980469 5.160156 -296.363281 5.128906 -296.6875 5.085938 C -296.921875 5.050781 -297.128906 4.921875 -297.265625 4.730469 C -297.414062 4.546875 -297.496094 4.316406 -297.503906 4.082031 C -297.535156 3.796875 -297.378906 3.523438 -297.117188 3.40625 C -296.71875 3.265625 -296.289062 3.230469 -295.871094 3.304688 C -294.710938 3.429688 -293.507812 3.59375 -292.238281 3.746094 C -290.960938 3.894531 -289.757812 4.046875 -288.640625 4.203125 C -287.527344 4.363281 -286.601562 4.480469 -285.855469 4.578125 C -285.109375 4.675781 -284.714844 4.75 -284.546875 4.765625 C -284.382812 4.777344 -283.90625 4.800781 -283.203125 4.851562 C -282.5 4.90625 -281.632812 4.972656 -280.644531 5.035156 C -279.652344 5.097656 -278.671875 5.179688 -277.691406 5.261719 C -276.71875 5.34375 -275.871094 5.390625 -275.164062 5.464844 C -274.746094 5.492188 -274.339844 5.613281 -273.980469 5.816406 C -273.730469 5.964844 -273.582031 6.238281 -273.59375 6.523438 C -273.597656 6.738281 -273.691406 6.945312 -273.851562 7.089844 C -274 7.257812 -274.210938 7.34375 -274.433594 7.328125 C -274.726562 7.308594 -275.039062 7.257812 -275.394531 7.257812 C -275.847656 7.257812 -276.304688 7.289062 -276.757812 7.351562 C -277.441406 7.417969 -278.09375 7.703125 -278.617188 8.15625 C -279.113281 8.644531 -279.449219 9.277344 -279.582031 9.960938 C -279.796875 10.988281 -279.921875 12.027344 -279.960938 13.074219 C -279.996094 13.742188 -280.039062 14.445312 -280.066406 15.214844 C -280.097656 15.984375 -280.101562 16.875 -280.121094 17.945312 C -280.136719 19.019531 -280.15625 20.363281 -280.15625 21.976562 C -280.167969 23.601562 -280.175781 25.597656 -280.175781 27.96875 C -280.175781 30.34375 -280.175781 33.21875 -280.175781 36.601562 Z M -151.5 26.703125 C -151.871094 26.703125 -152.203125 26.46875 -152.328125 26.113281 C -152.472656 25.667969 -152.554688 25.199219 -152.574219 24.730469 C -152.605469 24.421875 -152.640625 24.117188 -152.660156 23.800781 C -152.714844 23.222656 -152.878906 22.664062 -153.148438 22.148438 C -153.480469 21.589844 -153.945312 21.121094 -154.511719 20.792969 C -155.375 20.292969 -156.316406 19.921875 -157.300781 19.714844 C -158.855469 19.367188 -160.441406 19.15625 -162.039062 19.074219 C -165.339844 18.882812 -168.664062 18.6875 -172.015625 18.492188 L -172.015625 55.445312 C -172.015625 58.117188 -172.015625 60.78125 -171.996094 63.453125 C -171.996094 65.644531 -171.953125 67.824219 -171.902344 70.015625 C -171.855469 71.570312 -171.792969 73.148438 -171.628906 74.691406 C -171.574219 75.425781 -171.445312 76.15625 -171.25 76.867188 C -171.121094 77.378906 -170.847656 77.847656 -170.460938 78.207031 C -169.964844 78.570312 -169.371094 78.789062 -168.761719 78.835938 C -168.320312 78.890625 -167.878906 78.941406 -167.453125 78.988281 L -166.0625 79.078125 C -165.710938 79.078125 -165.355469 79.105469 -165.03125 79.078125 L -165.003906 79.078125 C -164.648438 79.046875 -164.304688 79.210938 -164.109375 79.503906 C -164.109375 79.503906 -164.109375 79.503906 -164.109375 79.523438 C -163.980469 79.75 -163.921875 80.011719 -163.941406 80.265625 C -163.953125 80.644531 -164.144531 80.992188 -164.457031 81.207031 C -164.835938 81.421875 -165.265625 81.535156 -165.703125 81.53125 C -166.859375 81.585938 -168.023438 81.632812 -169.1875 81.652344 L -172.472656 81.703125 C -173.308594 81.710938 -174.144531 81.710938 -174.996094 81.703125 C -175.382812 81.703125 -175.78125 81.683594 -176.167969 81.703125 C -176.558594 81.71875 -176.957031 81.773438 -177.335938 81.8125 C -178.148438 81.894531 -178.976562 81.96875 -179.8125 82.03125 L -182.6875 82.277344 C -183.507812 82.34375 -184.335938 82.394531 -185.164062 82.433594 C -185.59375 82.488281 -186.03125 82.433594 -186.4375 82.277344 C -186.832031 82.105469 -187.074219 81.703125 -187.046875 81.269531 C -187.046875 80.976562 -186.941406 80.691406 -186.753906 80.460938 C -186.527344 80.207031 -186.207031 80.066406 -185.867188 80.066406 C -185.457031 80.039062 -185.050781 79.980469 -184.652344 79.894531 C -184.226562 79.792969 -183.808594 79.671875 -183.394531 79.539062 C -182.683594 79.34375 -182.117188 78.816406 -181.863281 78.132812 C -181.480469 77.121094 -181.25 76.066406 -181.175781 74.988281 C -181.011719 73.417969 -180.9375 71.816406 -180.898438 70.234375 C -180.839844 68.023438 -180.8125 65.804688 -180.796875 63.589844 C -180.796875 60.882812 -180.796875 58.1875 -180.796875 55.480469 C -180.796875 49.246094 -180.796875 24.332031 -180.796875 18.109375 C -184.839844 18.023438 -188.917969 17.9375 -193.042969 17.839844 C -194.546875 17.792969 -196.058594 17.839844 -197.558594 17.984375 C -198.492188 18.0625 -199.40625 18.316406 -200.253906 18.726562 C -200.898438 19.070312 -201.433594 19.585938 -201.808594 20.210938 C -202.179688 20.753906 -202.503906 21.332031 -202.769531 21.933594 C -202.921875 22.285156 -203.054688 22.660156 -203.21875 23.015625 C -203.304688 23.375 -203.492188 23.703125 -203.769531 23.953125 C -204.019531 24.109375 -204.3125 24.183594 -204.605469 24.160156 C -204.871094 24.148438 -205.125 24.03125 -205.3125 23.839844 C -205.582031 23.589844 -205.734375 23.238281 -205.734375 22.871094 L -205.734375 22.835938 C -205.710938 22.347656 -205.644531 21.863281 -205.542969 21.382812 C -205.375 20.582031 -205.214844 19.785156 -205.050781 18.988281 C -204.875 18.074219 -204.679688 17.179688 -204.488281 16.273438 C -204.316406 15.496094 -204.132812 14.722656 -203.972656 13.945312 C -203.898438 13.59375 -203.78125 13.121094 -203.742188 12.769531 C -203.746094 12.75 -203.746094 12.722656 -203.742188 12.703125 C -203.730469 12.6875 -203.726562 12.664062 -203.722656 12.648438 C -203.636719 12.410156 -203.546875 12.183594 -203.457031 11.941406 C -203.34375 11.683594 -203.222656 11.429688 -203.101562 11.1875 L -203.101562 11.164062 C -202.960938 10.894531 -202.71875 10.707031 -202.429688 10.632812 C -202.40625 10.632812 -202.386719 10.628906 -202.367188 10.617188 C -202.355469 10.628906 -202.335938 10.632812 -202.320312 10.632812 C -201.792969 10.734375 -201.292969 10.914062 -200.820312 11.160156 C -199.992188 11.511719 -199.121094 11.765625 -198.226562 11.917969 C -197.320312 12.070312 -196.414062 12.195312 -195.5 12.292969 C -194.585938 12.394531 -193.78125 12.476562 -192.933594 12.554688 C -192.367188 12.589844 -191.800781 12.636719 -191.234375 12.660156 L -174.785156 13.410156 L -159.027344 14.113281 C -157.890625 14.167969 -156.75 14.183594 -155.617188 14.140625 C -154.839844 14.113281 -154.058594 14.070312 -153.289062 13.972656 C -152.816406 13.914062 -152.339844 13.84375 -151.875 13.753906 C -151.574219 13.699219 -151.273438 13.671875 -150.972656 13.667969 L -150.933594 13.667969 C -150.550781 13.722656 -150.261719 14.03125 -150.226562 14.410156 C -150.167969 14.679688 -150.144531 14.953125 -150.167969 15.226562 C -150.167969 16.0625 -150.191406 16.902344 -150.214844 17.734375 C -150.246094 18.75 -150.277344 19.757812 -150.304688 20.769531 C -150.332031 21.683594 -150.363281 22.597656 -150.394531 23.507812 C -150.417969 24.023438 -150.441406 24.566406 -150.441406 25.078125 C -150.421875 25.480469 -150.535156 25.878906 -150.765625 26.214844 C -150.949219 26.484375 -151.253906 26.652344 -151.582031 26.65625 Z M -142.632812 80.261719 C -143.039062 80.128906 -143.3125 79.742188 -143.296875 79.3125 C -143.296875 79.027344 -143.203125 78.753906 -143.03125 78.53125 C -142.8125 78.238281 -142.476562 78.058594 -142.113281 78.039062 C -141.671875 77.992188 -141.238281 77.914062 -140.816406 77.800781 C -140.355469 77.683594 -139.886719 77.585938 -139.425781 77.484375 C -139.035156 77.402344 -138.683594 77.179688 -138.449219 76.859375 C -138.171875 76.429688 -137.980469 75.949219 -137.894531 75.449219 C -137.726562 74.707031 -137.601562 73.960938 -137.496094 73.21875 C -137.289062 71.71875 -137.203125 70.183594 -137.140625 68.683594 C -137.0625 66.570312 -137.019531 64.453125 -137.007812 62.339844 C -136.980469 59.761719 -136.988281 57.1875 -136.988281 54.609375 C -136.988281 53.039062 -136.988281 29.460938 -136.988281 27.890625 C -136.988281 26.832031 -136.988281 25.777344 -137.019531 24.71875 C -137.019531 24.015625 -137.050781 23.292969 -137.070312 22.578125 C -137.097656 22.015625 -137.128906 21.457031 -137.171875 20.894531 C -137.195312 20.101562 -137.316406 19.3125 -137.527344 18.550781 C -137.65625 18.027344 -137.960938 17.566406 -138.390625 17.234375 C -138.992188 16.847656 -139.675781 16.609375 -140.390625 16.527344 C -140.6875 16.484375 -141 16.449219 -141.296875 16.414062 C -141.648438 16.375 -142.023438 16.355469 -142.394531 16.335938 C -142.714844 16.304688 -143.03125 16.300781 -143.355469 16.292969 C -143.355469 16.292969 -143.382812 16.292969 -143.40625 16.292969 C -143.703125 16.261719 -143.976562 16.121094 -144.183594 15.902344 C -144.394531 15.699219 -144.53125 15.421875 -144.5625 15.125 L -144.5625 15.074219 C -144.582031 14.652344 -144.335938 14.261719 -143.945312 14.105469 C -143.53125 13.9375 -143.082031 13.871094 -142.640625 13.902344 C -141.546875 13.921875 -140.449219 13.964844 -139.363281 13.996094 C -138.277344 14.03125 -137.199219 14.070312 -136.121094 14.125 C -135.269531 14.171875 -134.421875 14.203125 -133.570312 14.238281 C -133.167969 14.257812 -132.757812 14.285156 -132.355469 14.292969 L -130.714844 14.324219 C -129.523438 14.375 -128.328125 14.390625 -127.128906 14.414062 C -125.589844 14.464844 -124.054688 14.492188 -122.527344 14.519531 C -121.003906 14.546875 -119.421875 14.589844 -117.871094 14.617188 C -116.59375 14.640625 -115.3125 14.652344 -114.039062 14.679688 C -113.351562 14.679688 -112.664062 14.703125 -111.984375 14.679688 C -111.238281 14.636719 -110.5 14.566406 -109.765625 14.480469 C -109.273438 14.40625 -108.777344 14.328125 -108.277344 14.269531 C -108.117188 14.21875 -107.960938 14.152344 -107.8125 14.082031 C -107.589844 13.972656 -107.347656 13.90625 -107.105469 13.886719 L -107.082031 13.886719 C -106.75 13.910156 -106.46875 14.136719 -106.375 14.453125 C -106.304688 14.675781 -106.269531 14.90625 -106.273438 15.140625 L -106.273438 15.164062 C -106.320312 15.628906 -106.402344 16.085938 -106.535156 16.539062 C -106.730469 17.371094 -106.863281 18.214844 -106.929688 19.066406 C -106.957031 19.421875 -106.988281 19.773438 -107.023438 20.109375 C -107.058594 20.644531 -107.085938 21.164062 -107.132812 21.707031 C -107.179688 22.25 -107.210938 22.824219 -107.253906 23.386719 C -107.292969 23.78125 -107.328125 24.1875 -107.402344 24.582031 C -107.46875 24.851562 -107.589844 25.109375 -107.753906 25.335938 C -107.9375 25.597656 -108.234375 25.765625 -108.554688 25.796875 L -108.585938 25.796875 C -108.957031 25.8125 -109.304688 25.613281 -109.480469 25.28125 C -109.636719 24.957031 -109.710938 24.601562 -109.699219 24.242188 C -109.703125 23.820312 -109.738281 23.394531 -109.789062 22.976562 C -109.847656 22.460938 -109.964844 21.953125 -110.144531 21.46875 C -110.273438 21.097656 -110.5 20.765625 -110.800781 20.507812 C -111.265625 20.167969 -111.800781 19.925781 -112.367188 19.800781 C -113.484375 19.5 -114.625 19.28125 -115.777344 19.144531 C -116.332031 19.066406 -116.890625 19.023438 -117.453125 19.011719 C -118.425781 18.957031 -119.398438 18.933594 -120.371094 18.886719 L -123.675781 18.800781 C -124.613281 18.765625 -125.5625 18.742188 -126.503906 18.726562 C -127.011719 18.707031 -127.523438 18.695312 -128.03125 18.6875 C -128.050781 18.832031 -128.0625 18.972656 -128.0625 19.113281 L -128.0625 42.285156 C -128.070312 42.414062 -128.0625 42.542969 -128.042969 42.675781 C -126.714844 42.648438 -125.382812 42.675781 -124.070312 42.589844 C -122.789062 42.503906 -121.515625 42.320312 -120.265625 42.027344 C -119.730469 41.925781 -119.238281 41.664062 -118.851562 41.285156 C -118.605469 41.019531 -118.363281 40.753906 -118.113281 40.496094 C -117.902344 40.234375 -117.601562 40.066406 -117.273438 40.027344 C -116.996094 40.015625 -116.734375 40.136719 -116.566406 40.351562 C -116.386719 40.59375 -116.304688 40.894531 -116.328125 41.199219 C -116.375 41.722656 -116.464844 42.246094 -116.59375 42.757812 C -116.792969 43.792969 -116.929688 44.835938 -117 45.886719 C -117.058594 46.5625 -117.144531 47.230469 -117.191406 47.90625 C -117.242188 48.582031 -117.277344 49.316406 -117.320312 50.019531 C -117.34375 50.433594 -117.382812 50.882812 -117.382812 51.292969 C -117.375 51.710938 -117.4375 52.125 -117.566406 52.523438 C -117.695312 52.996094 -118.105469 53.339844 -118.597656 53.386719 C -118.921875 53.414062 -119.242188 53.265625 -119.429688 52.996094 C -119.589844 52.738281 -119.667969 52.441406 -119.65625 52.136719 C -119.648438 51.726562 -119.664062 51.324219 -119.703125 50.917969 C -119.765625 50.4375 -119.871094 49.964844 -120.023438 49.507812 C -120.109375 49.164062 -120.265625 48.847656 -120.476562 48.566406 C -122.339844 46.222656 -125.292969 46.980469 -127.929688 47.035156 C -127.964844 47.03125 -128 47.03125 -128.035156 47.035156 C -128.042969 47.074219 -128.042969 47.109375 -128.035156 47.148438 L -128.035156 54.265625 C -128.035156 55.085938 -128.035156 55.90625 -128.058594 56.734375 C -128.058594 57.875 -128.058594 59.015625 -128.074219 60.15625 C -128.074219 61.371094 -128.074219 62.585938 -128.074219 63.800781 C -128.074219 64.859375 -128.074219 65.875 -128.074219 66.914062 C -128.074219 67.539062 -128.074219 68.167969 -128.046875 68.792969 C -128.046875 69.914062 -127.886719 71.027344 -127.574219 72.101562 C -127.359375 72.835938 -126.878906 73.464844 -126.222656 73.863281 C -125.328125 74.324219 -124.339844 74.589844 -123.335938 74.628906 C -121.648438 74.746094 -119.957031 74.738281 -118.273438 74.613281 C -117.378906 74.5625 -116.503906 74.507812 -115.605469 74.433594 C -114.585938 74.34375 -113.574219 74.21875 -112.582031 74.035156 C -111.714844 73.894531 -110.863281 73.648438 -110.058594 73.308594 C -109.429688 73.003906 -108.851562 72.601562 -108.355469 72.113281 C -107.875 71.617188 -107.496094 71.027344 -107.246094 70.386719 C -106.917969 69.527344 -106.691406 68.632812 -106.582031 67.722656 C -106.519531 67.308594 -106.394531 66.902344 -106.203125 66.527344 C -106 66.214844 -105.652344 66.027344 -105.28125 66.035156 C -104.863281 66.035156 -104.511719 66.328125 -104.4375 66.738281 C -104.34375 67.0625 -104.300781 67.394531 -104.304688 67.730469 C -104.320312 68.167969 -104.359375 68.605469 -104.421875 69.042969 C -104.511719 69.820312 -104.59375 70.597656 -104.707031 71.367188 C -104.8125 72.226562 -104.929688 73.074219 -105.058594 73.9375 C -105.152344 74.59375 -105.277344 75.25 -105.441406 75.894531 C -105.566406 76.550781 -105.863281 77.164062 -106.296875 77.675781 C -106.742188 78.109375 -107.316406 78.382812 -107.933594 78.460938 C -108.777344 78.585938 -109.628906 78.664062 -110.480469 78.695312 C -113.253906 78.863281 -116.046875 78.996094 -118.855469 79.097656 L -125.222656 79.300781 C -126.707031 79.300781 -128.195312 79.34375 -129.691406 79.386719 C -130.59375 79.425781 -131.503906 79.484375 -132.414062 79.539062 C -132.828125 79.5625 -133.25 79.59375 -133.671875 79.625 C -134.511719 79.675781 -135.355469 79.773438 -136.191406 79.863281 C -137.089844 79.976562 -137.984375 80.074219 -138.882812 80.160156 C -139.71875 80.261719 -140.546875 80.332031 -141.378906 80.378906 C -141.800781 80.425781 -142.230469 80.378906 -142.632812 80.246094 Z M -98.078125 14.8125 C -97.683594 14.648438 -97.253906 14.578125 -96.828125 14.605469 C -95.789062 14.605469 -94.75 14.621094 -93.710938 14.640625 C -92.675781 14.664062 -91.667969 14.667969 -90.644531 14.707031 C -89.839844 14.730469 -89.039062 14.753906 -88.238281 14.769531 C -87.847656 14.769531 -87.449219 14.800781 -87.058594 14.800781 C -86.667969 14.800781 -86.21875 14.777344 -85.800781 14.769531 C -84.929688 14.753906 -84.054688 14.730469 -83.183594 14.707031 C -82.164062 14.675781 -81.152344 14.65625 -80.128906 14.640625 C -79.285156 14.625 -78.433594 14.605469 -77.585938 14.605469 C -77.175781 14.585938 -76.765625 14.65625 -76.382812 14.808594 C -75.996094 14.960938 -75.742188 15.335938 -75.753906 15.75 C -75.753906 15.757812 -75.753906 15.792969 -75.753906 15.800781 C -75.785156 16.074219 -75.921875 16.328125 -76.136719 16.503906 C -76.339844 16.664062 -76.585938 16.757812 -76.84375 16.78125 L -76.894531 16.78125 C -77.304688 16.78125 -77.71875 16.808594 -78.132812 16.84375 C -78.640625 16.875 -79.15625 16.925781 -79.660156 16.96875 C -80.269531 17.058594 -80.851562 17.289062 -81.359375 17.644531 C -81.742188 17.964844 -82.023438 18.402344 -82.15625 18.886719 C -82.355469 19.632812 -82.472656 20.394531 -82.511719 21.167969 C -82.53125 21.703125 -82.546875 22.238281 -82.5625 22.777344 C -82.585938 23.457031 -82.585938 24.144531 -82.605469 24.828125 C -82.605469 25.84375 -82.605469 26.847656 -82.628906 27.855469 C -82.628906 29.359375 -82.628906 30.863281 -82.628906 32.371094 C -82.628906 34.539062 -82.636719 36.710938 -82.652344 38.886719 C -82.671875 43.824219 -82.691406 48.757812 -82.710938 53.695312 C -82.710938 56.996094 -82.710938 60.308594 -82.636719 63.609375 C -82.617188 65.585938 -82.464844 67.5625 -82.175781 69.515625 C -82.074219 70.429688 -81.722656 71.296875 -81.164062 72.027344 C -80.628906 72.507812 -79.984375 72.84375 -79.285156 73.015625 C -78.097656 73.351562 -76.871094 73.570312 -75.640625 73.652344 C -73.765625 73.8125 -71.863281 73.84375 -69.980469 73.84375 C -68.5625 73.863281 -67.148438 73.84375 -65.734375 73.734375 C -64.566406 73.65625 -63.410156 73.433594 -62.304688 73.070312 C -61.371094 72.761719 -60.535156 72.203125 -59.890625 71.464844 C -59.371094 70.832031 -58.945312 70.125 -58.636719 69.375 C -58.324219 68.640625 -58.09375 67.878906 -57.949219 67.101562 C -57.78125 68.128906 -57.601562 69.167969 -57.410156 70.226562 C -57.148438 71.695312 -56.863281 73.199219 -56.5625 74.726562 C -56.636719 75.058594 -56.722656 75.386719 -56.8125 75.710938 C -56.925781 76.160156 -57.09375 76.59375 -57.316406 77 C -57.546875 77.398438 -57.902344 77.710938 -58.332031 77.890625 C -58.867188 78.09375 -59.4375 78.214844 -60.019531 78.242188 C -60.929688 78.328125 -61.875 78.328125 -62.792969 78.328125 C -65.582031 78.328125 -68.371094 78.300781 -71.164062 78.242188 C -73.40625 78.195312 -75.652344 78.140625 -77.886719 78.03125 C -79.636719 77.984375 -81.386719 77.9375 -83.140625 77.90625 C -84.535156 77.859375 -85.933594 77.835938 -87.332031 77.832031 C -87.765625 77.832031 -88.195312 77.832031 -88.628906 77.855469 C -89.371094 77.855469 -90.121094 77.894531 -90.859375 77.9375 C -91.75 77.984375 -92.628906 78.03125 -93.519531 78.0625 C -94.316406 78.109375 -95.113281 78.128906 -95.914062 78.128906 C -96.324219 78.144531 -96.738281 78.078125 -97.121094 77.921875 C -97.515625 77.773438 -97.769531 77.394531 -97.757812 76.972656 C -97.757812 76.707031 -97.664062 76.449219 -97.496094 76.238281 C -97.28125 75.976562 -96.957031 75.820312 -96.617188 75.820312 L -96.585938 75.820312 C -96.164062 75.816406 -95.746094 75.777344 -95.332031 75.710938 C -94.894531 75.628906 -94.464844 75.539062 -94.035156 75.4375 C -93.648438 75.363281 -93.304688 75.15625 -93.054688 74.855469 C -92.78125 74.449219 -92.589844 73.996094 -92.503906 73.515625 C -92.328125 72.8125 -92.207031 72.105469 -92.105469 71.417969 C -91.910156 69.96875 -91.792969 68.511719 -91.75 67.054688 C -91.667969 65.011719 -91.613281 62.96875 -91.589844 60.929688 C -91.558594 58.460938 -91.546875 55.964844 -91.535156 53.488281 C -91.507812 48.617188 -91.480469 43.753906 -91.460938 38.886719 C -91.460938 36.710938 -91.449219 34.539062 -91.429688 32.371094 C -91.429688 30.863281 -91.40625 29.359375 -91.429688 27.855469 C -91.429688 26.847656 -91.429688 25.84375 -91.429688 24.828125 C -91.429688 24.121094 -91.453125 23.457031 -91.472656 22.785156 C -91.5 22.253906 -91.527344 21.726562 -91.558594 21.179688 C -91.582031 20.421875 -91.703125 19.671875 -91.914062 18.941406 C -92.039062 18.445312 -92.332031 18.007812 -92.746094 17.710938 C -93.320312 17.347656 -93.980469 17.128906 -94.664062 17.070312 C -94.953125 17.023438 -95.25 16.996094 -95.535156 16.980469 C -95.890625 16.941406 -96.246094 16.929688 -96.597656 16.917969 L -96.617188 16.917969 C -96.921875 16.894531 -97.226562 16.882812 -97.539062 16.882812 C -97.539062 16.882812 -97.578125 16.882812 -97.582031 16.882812 C -97.847656 16.84375 -98.09375 16.722656 -98.289062 16.535156 C -98.488281 16.339844 -98.613281 16.082031 -98.644531 15.804688 L -98.644531 15.753906 C -98.660156 15.347656 -98.425781 14.976562 -98.054688 14.816406 Z M 277.132812 9.007812 C 277.148438 8.429688 277.242188 7.859375 277.398438 7.304688 C 277.574219 6.792969 277.898438 6.457031 278.308594 6.464844 C 278.597656 6.449219 278.882812 6.488281 279.152344 6.578125 C 279.476562 6.675781 279.804688 6.753906 280.132812 6.8125 C 280.652344 6.910156 281.179688 6.945312 281.707031 6.917969 C 283.902344 6.84375 286.105469 6.738281 288.320312 6.605469 C 289.875 6.511719 291.4375 6.390625 293 6.25 C 294.085938 6.148438 295.160156 6.050781 296.25 5.964844 L 308.390625 4.972656 L 321.035156 3.9375 C 321.585938 3.859375 322.144531 3.90625 322.671875 4.066406 C 323.175781 4.257812 323.484375 4.761719 323.441406 5.292969 C 323.4375 5.664062 323.398438 6.03125 323.320312 6.394531 C 323.230469 6.847656 323.0625 7.28125 322.8125 7.675781 C 319.484375 14.257812 316.167969 20.761719 312.867188 27.195312 C 309.609375 33.542969 306.367188 39.820312 303.136719 46.039062 C 300.023438 52.019531 296.921875 57.9375 293.839844 63.777344 C 290.796875 69.554688 287.769531 75.273438 284.757812 80.925781 L 295.429688 81.371094 L 306.492188 81.832031 C 308.421875 81.945312 310.359375 81.910156 312.28125 81.734375 C 313.578125 81.621094 314.855469 81.34375 316.078125 80.910156 C 316.960938 80.597656 317.769531 80.117188 318.464844 79.5 C 319.109375 78.9375 319.667969 78.285156 320.125 77.570312 C 320.449219 77.042969 320.703125 76.480469 320.890625 75.890625 C 321.125 75.1875 321.328125 74.480469 321.5 73.753906 C 321.648438 73.128906 321.789062 72.496094 321.917969 71.851562 C 322.011719 71.359375 322.164062 70.886719 322.386719 70.441406 L 322.386719 70.425781 C 322.574219 70.003906 322.988281 69.726562 323.445312 69.71875 C 323.960938 69.722656 324.402344 70.082031 324.507812 70.582031 C 324.691406 71.332031 324.765625 72.101562 324.730469 72.875 C 324.71875 73.945312 324.644531 75.019531 324.507812 76.082031 C 324.382812 77.296875 324.195312 78.507812 324.003906 79.714844 C 323.808594 80.867188 323.597656 82.027344 323.371094 83.167969 C 323.195312 84.050781 323.019531 84.929688 322.800781 85.804688 C 322.703125 86.507812 322.535156 87.195312 322.300781 87.863281 C 322.140625 88.367188 321.746094 88.761719 321.238281 88.921875 C 320.699219 89.023438 320.140625 89.046875 319.589844 88.992188 C 315.746094 88.785156 311.949219 88.558594 308.191406 88.324219 C 304.484375 88.085938 300.816406 87.835938 297.195312 87.570312 C 293.523438 87.304688 289.90625 87.058594 286.332031 86.835938 C 282.792969 86.613281 279.300781 86.410156 275.855469 86.226562 C 275.449219 86.226562 275.042969 86.140625 274.664062 85.972656 C 274.214844 85.726562 273.945312 85.238281 273.980469 84.722656 C 273.988281 84.308594 274.050781 83.894531 274.167969 83.496094 C 274.167969 83.488281 274.167969 83.488281 274.167969 83.476562 C 274.425781 82.71875 274.746094 81.988281 275.132812 81.285156 C 278.109375 75.644531 281.105469 69.933594 284.125 64.15625 C 287.175781 58.320312 290.242188 52.410156 293.324219 46.425781 C 296.3125 40.648438 299.296875 34.789062 302.285156 28.863281 C 305.304688 22.867188 308.324219 16.785156 311.347656 10.621094 L 302.460938 11.261719 L 293.828125 11.886719 C 292.359375 11.964844 290.898438 12.097656 289.441406 12.238281 C 288.0625 12.351562 286.695312 12.585938 285.359375 12.945312 C 284.246094 13.203125 283.195312 13.683594 282.265625 14.355469 C 281.375 15.039062 280.601562 15.875 279.988281 16.820312 C 279.394531 17.730469 278.910156 18.710938 278.550781 19.742188 C 278.234375 20.59375 278.019531 21.480469 277.902344 22.386719 C 277.871094 23.050781 277.671875 23.695312 277.320312 24.265625 C 277.105469 24.578125 276.753906 24.773438 276.367188 24.785156 C 276.015625 24.785156 275.734375 24.53125 275.609375 24.078125 C 275.527344 23.695312 275.488281 23.296875 275.496094 22.902344 C 275.496094 22.382812 275.570312 21.746094 275.617188 21.214844 C 275.726562 20.261719 275.828125 19.304688 275.9375 18.34375 C 276.078125 17.183594 276.214844 16.035156 276.355469 14.890625 C 276.5 13.746094 276.636719 12.648438 276.78125 11.527344 C 276.890625 10.6875 277.011719 9.84375 277.136719 8.992188 Z M 233.480469 67.0625 C 233.460938 66.617188 233.527344 66.171875 233.664062 65.75 C 233.761719 65.347656 234.128906 65.066406 234.539062 65.074219 C 234.886719 65.085938 235.203125 65.257812 235.394531 65.542969 C 235.621094 65.90625 235.730469 66.328125 235.703125 66.75 C 235.703125 67.25 235.703125 67.734375 235.734375 68.226562 C 235.769531 68.839844 235.847656 69.453125 235.96875 70.058594 C 236.234375 71.566406 236.800781 73.003906 237.640625 74.289062 C 238.429688 75.449219 239.425781 76.449219 240.585938 77.246094 C 241.757812 78.035156 243.042969 78.65625 244.390625 79.082031 C 245.75 79.503906 247.15625 79.769531 248.574219 79.871094 C 250.953125 80.125 253.351562 79.730469 255.515625 78.734375 C 257.347656 77.832031 258.839844 76.375 259.78125 74.574219 C 260.773438 72.605469 261.265625 70.425781 261.222656 68.226562 C 261.25 66.675781 261.042969 65.132812 260.609375 63.644531 C 260.167969 62.25 259.511719 60.933594 258.671875 59.734375 C 257.660156 58.332031 256.523438 57.019531 255.277344 55.816406 C 253.65625 54.238281 252.003906 52.730469 250.320312 51.285156 C 249.027344 50.140625 247.738281 49 246.457031 47.859375 C 243.855469 45.628906 241.480469 43.148438 239.359375 40.457031 C 237.78125 38.484375 236.527344 36.269531 235.636719 33.902344 C 234.910156 31.808594 234.542969 29.609375 234.554688 27.390625 C 234.503906 23.957031 235.308594 20.566406 236.898438 17.519531 C 238.414062 14.714844 240.664062 12.375 243.40625 10.75 C 244.933594 9.835938 246.566406 9.128906 248.269531 8.636719 C 249.96875 8.152344 251.703125 7.824219 253.457031 7.65625 C 254.613281 7.558594 255.773438 7.519531 256.929688 7.539062 C 257.992188 7.558594 259.054688 7.613281 260.140625 7.730469 C 261.019531 7.824219 261.890625 7.964844 262.75 8.160156 C 263.386719 8.277344 264.027344 8.355469 264.667969 8.394531 C 265.058594 8.394531 265.445312 8.394531 265.835938 8.355469 C 266.183594 8.292969 266.542969 8.34375 266.859375 8.492188 C 267.167969 8.734375 267.332031 9.117188 267.28125 9.511719 L 267.28125 9.558594 C 267.203125 10.53125 267.140625 11.515625 267.070312 12.484375 C 266.894531 15.023438 266.875 17.621094 266.859375 20.140625 C 266.886719 20.757812 266.84375 21.382812 266.722656 21.992188 C 266.722656 22 266.722656 22.011719 266.722656 22.019531 C 266.632812 22.554688 266.15625 22.9375 265.613281 22.914062 C 265.179688 22.949219 264.773438 22.710938 264.589844 22.320312 C 264.433594 21.957031 264.339844 21.570312 264.308594 21.175781 C 264.261719 20.683594 264.171875 20.199219 264.050781 19.71875 C 263.898438 19.109375 263.726562 18.511719 263.542969 17.910156 C 263.398438 17.4375 263.226562 16.980469 263.019531 16.535156 C 262.789062 16.140625 262.507812 15.785156 262.175781 15.476562 C 261.585938 14.914062 260.910156 14.4375 260.1875 14.066406 C 259.140625 13.539062 258.019531 13.167969 256.867188 12.964844 C 255.253906 12.683594 253.609375 12.613281 251.980469 12.757812 C 250.046875 12.878906 248.164062 13.417969 246.453125 14.320312 C 244.898438 15.160156 243.589844 16.390625 242.65625 17.894531 C 241.699219 19.535156 241.210938 21.402344 241.242188 23.304688 C 241.230469 24.628906 241.390625 25.949219 241.730469 27.230469 C 242.105469 28.46875 242.679688 29.644531 243.429688 30.703125 C 244.394531 32.023438 245.492188 33.246094 246.707031 34.339844 C 248.367188 35.898438 250.15625 37.332031 251.960938 38.71875 L 254.4375 40.636719 C 257.609375 43.015625 260.507812 45.726562 263.097656 48.722656 C 265.167969 51.109375 266.8125 53.832031 267.957031 56.769531 C 268.957031 59.488281 269.449219 62.359375 269.425781 65.257812 C 269.441406 67.328125 269.171875 69.390625 268.628906 71.394531 C 268.070312 73.5 267.144531 75.492188 265.886719 77.28125 C 264.46875 79.246094 262.699219 80.9375 260.667969 82.265625 C 259.324219 83.125 257.839844 83.746094 256.289062 84.121094 C 254.6875 84.496094 253.058594 84.707031 251.414062 84.75 C 249.796875 84.792969 248.179688 84.746094 246.570312 84.605469 C 245.175781 84.492188 243.789062 84.289062 242.414062 84.011719 C 240.984375 83.714844 239.582031 83.316406 238.203125 82.824219 C 236.894531 82.355469 235.640625 81.742188 234.464844 80.988281 C 234.109375 80.773438 233.796875 80.484375 233.546875 80.148438 C 233.292969 79.757812 233.140625 79.316406 233.105469 78.851562 C 233.042969 78.214844 233.042969 77.527344 233.042969 76.890625 C 233.042969 74.863281 233.097656 72.816406 233.238281 70.796875 C 233.316406 69.550781 233.398438 68.296875 233.492188 67.046875 Z M 225.476562 80.105469 C 225.828125 80.148438 226.183594 80.1875 226.539062 80.199219 L 226.570312 80.199219 C 226.9375 80.222656 227.273438 80.414062 227.476562 80.722656 C 227.648438 80.976562 227.742188 81.269531 227.734375 81.578125 C 227.746094 81.992188 227.523438 82.375 227.160156 82.578125 C 226.75 82.785156 226.28125 82.863281 225.824219 82.808594 C 224.558594 82.753906 223.304688 82.691406 222.050781 82.59375 C 220.902344 82.503906 219.761719 82.417969 218.625 82.324219 C 217.761719 82.253906 216.902344 82.1875 216.046875 82.097656 C 215.671875 82.058594 215.269531 82.011719 214.898438 81.992188 C 214.527344 81.976562 214.144531 81.992188 213.773438 81.992188 C 213.019531 81.992188 212.265625 81.992188 211.515625 81.992188 C 210.640625 81.992188 209.746094 81.992188 208.886719 81.992188 C 208.113281 81.992188 207.339844 81.96875 206.570312 81.929688 C 206.171875 81.933594 205.773438 81.84375 205.414062 81.667969 C 205.03125 81.457031 204.796875 81.046875 204.808594 80.609375 C 204.804688 80.324219 204.890625 80.046875 205.046875 79.808594 C 205.238281 79.53125 205.550781 79.367188 205.882812 79.378906 L 205.910156 79.378906 C 206.316406 79.386719 206.714844 79.359375 207.109375 79.304688 C 207.53125 79.238281 207.941406 79.152344 208.359375 79.058594 C 208.75 78.980469 209.09375 78.757812 209.320312 78.4375 C 209.601562 77.992188 209.789062 77.496094 209.878906 76.980469 C 210.035156 76.222656 210.144531 75.457031 210.203125 74.683594 C 210.359375 73.074219 210.441406 71.4375 210.5 69.820312 C 210.574219 67.554688 210.617188 65.277344 210.644531 63.007812 C 210.664062 60.234375 210.679688 57.46875 210.679688 54.691406 C 210.679688 53.007812 210.679688 27.636719 210.679688 25.945312 C 210.679688 24.808594 210.679688 23.667969 210.644531 22.535156 C 210.644531 21.757812 210.617188 21 210.601562 20.230469 C 210.566406 19.628906 210.539062 19.03125 210.503906 18.433594 C 210.503906 17.320312 210.273438 16.21875 209.832031 15.195312 C 209.519531 14.570312 208.90625 14.15625 208.207031 14.09375 C 207.75 14.027344 207.292969 13.988281 206.828125 13.972656 C 206.46875 13.957031 206.105469 13.964844 205.746094 13.996094 L 205.710938 13.996094 C 205.421875 13.996094 205.148438 13.875 204.957031 13.664062 C 204.765625 13.429688 204.664062 13.136719 204.660156 12.835938 C 204.640625 12.402344 204.855469 11.984375 205.222656 11.746094 C 205.589844 11.527344 206 11.410156 206.421875 11.390625 C 207.222656 11.316406 208.03125 11.273438 208.835938 11.21875 C 209.730469 11.152344 210.605469 11.089844 211.523438 11.042969 C 212.273438 11.003906 213.027344 10.957031 213.78125 10.90625 C 214.164062 10.882812 214.554688 10.871094 214.933594 10.835938 C 215.316406 10.800781 215.6875 10.746094 216.058594 10.699219 C 216.828125 10.605469 217.597656 10.511719 218.378906 10.410156 C 219.308594 10.292969 220.242188 10.183594 221.175781 10.082031 C 221.988281 9.984375 222.816406 9.878906 223.652344 9.800781 C 224.089844 9.734375 224.527344 9.78125 224.9375 9.933594 C 225.339844 10.113281 225.585938 10.519531 225.550781 10.957031 C 225.550781 10.96875 225.550781 11.003906 225.550781 11.015625 C 225.519531 11.339844 225.390625 11.644531 225.179688 11.898438 C 224.984375 12.121094 224.722656 12.28125 224.433594 12.347656 L 224.382812 12.347656 C 224.074219 12.375 223.765625 12.402344 223.460938 12.441406 C 223.054688 12.519531 222.660156 12.625 222.261719 12.742188 C 221.664062 12.90625 221.113281 13.203125 220.652344 13.625 C 220.28125 14.03125 220.023438 14.53125 219.910156 15.070312 C 219.703125 15.929688 219.585938 16.808594 219.558594 17.6875 C 219.539062 18.304688 219.523438 18.917969 219.507812 19.535156 C 219.484375 20.320312 219.484375 21.109375 219.46875 21.890625 C 219.46875 23.046875 219.46875 24.207031 219.453125 25.363281 C 219.453125 27.84375 219.453125 35.484375 219.453125 37.96875 L 219.453125 54.59375 C 219.453125 57.414062 219.453125 60.234375 219.46875 63.054688 C 219.46875 65.371094 219.511719 67.6875 219.574219 69.996094 C 219.613281 71.640625 219.683594 73.3125 219.851562 74.953125 C 219.914062 75.742188 220.03125 76.53125 220.203125 77.304688 C 220.320312 77.855469 220.578125 78.367188 220.960938 78.78125 C 221.425781 79.207031 222.003906 79.484375 222.625 79.589844 C 223.097656 79.679688 223.574219 79.78125 224.039062 79.863281 C 224.507812 79.949219 225.023438 80.011719 225.515625 80.089844 Z M 196.136719 13.472656 C 196.609375 13.40625 197.085938 13.554688 197.4375 13.878906 C 197.6875 14.144531 197.816406 14.503906 197.792969 14.871094 C 197.792969 15.183594 197.761719 15.503906 197.738281 15.816406 C 197.667969 16.320312 197.617188 16.832031 197.582031 17.34375 C 197.496094 18.191406 197.425781 19.054688 197.367188 19.90625 C 197.308594 20.757812 197.320312 21.550781 197.308594 22.375 C 197.308594 23.28125 197.28125 24.1875 197.265625 25.09375 C 197.265625 25.886719 197.265625 26.6875 197.234375 27.488281 C 197.234375 28.003906 197.21875 28.542969 197.15625 29.050781 C 197.144531 29.640625 196.992188 30.21875 196.714844 30.742188 C 196.488281 31.144531 196.074219 31.402344 195.613281 31.425781 C 195.113281 31.441406 194.671875 31.101562 194.550781 30.621094 C 194.429688 30.113281 194.378906 29.585938 194.394531 29.066406 C 194.390625 27.960938 194.238281 26.863281 193.941406 25.796875 C 193.671875 24.765625 193.25 23.777344 192.683594 22.871094 C 192.175781 22.035156 191.519531 21.300781 190.742188 20.695312 C 189.492188 19.738281 188.097656 18.976562 186.617188 18.4375 C 184.714844 17.722656 182.738281 17.21875 180.726562 16.925781 C 178.355469 16.570312 175.957031 16.4375 173.558594 16.535156 C 170.46875 16.605469 167.394531 17.007812 164.390625 17.730469 C 162.304688 18.234375 160.296875 19.027344 158.425781 20.085938 C 157.070312 20.863281 155.824219 21.820312 154.722656 22.933594 C 152.839844 24.792969 151.304688 26.96875 150.183594 29.359375 C 149.132812 31.660156 148.398438 34.09375 148.015625 36.59375 C 147.632812 39.257812 147.445312 41.949219 147.46875 44.640625 C 147.453125 47.757812 147.894531 50.859375 148.777344 53.851562 C 149.679688 56.785156 151.003906 59.566406 152.707031 62.113281 C 154.425781 64.675781 156.519531 66.964844 158.921875 68.90625 C 161.4375 70.910156 164.25 72.511719 167.257812 73.644531 C 170.542969 74.859375 174 75.539062 177.5 75.660156 C 179.464844 75.757812 181.441406 75.746094 183.402344 75.628906 C 185.011719 75.523438 186.59375 75.195312 188.101562 74.652344 C 189.527344 74.097656 190.824219 73.257812 191.90625 72.183594 C 192.5625 71.511719 193.117188 70.75 193.550781 69.925781 C 194.007812 69.074219 194.398438 68.191406 194.71875 67.28125 C 194.96875 66.582031 195.167969 65.867188 195.308594 65.140625 C 195.367188 64.738281 195.5 64.347656 195.695312 63.996094 C 195.929688 63.648438 196.335938 63.457031 196.753906 63.503906 L 196.796875 63.503906 C 197.199219 63.550781 197.558594 63.78125 197.753906 64.132812 C 197.988281 64.476562 198.113281 64.882812 198.109375 65.296875 C 198.085938 65.699219 198.035156 66.097656 197.960938 66.496094 C 197.847656 67.265625 197.722656 68.027344 197.585938 68.789062 C 197.445312 69.738281 197.265625 70.679688 197.078125 71.632812 C 196.886719 72.585938 196.703125 73.542969 196.480469 74.492188 C 196.300781 75.265625 196.128906 76.03125 195.875 76.78125 C 195.757812 77.25 195.589844 77.707031 195.378906 78.144531 C 195.183594 78.492188 194.90625 78.792969 194.574219 79.023438 C 194.175781 79.269531 193.742188 79.46875 193.289062 79.617188 C 191.761719 80.109375 190.1875 80.4375 188.589844 80.605469 C 186.675781 80.820312 184.753906 80.941406 182.828125 80.957031 C 180.851562 80.988281 178.878906 80.960938 176.917969 80.875 C 172.960938 80.738281 169.019531 80.214844 165.15625 79.3125 C 161.945312 78.554688 158.847656 77.398438 155.929688 75.859375 C 153.277344 74.417969 150.824219 72.628906 148.648438 70.535156 C 146.140625 68.175781 144.054688 65.410156 142.464844 62.359375 C 141.070312 59.617188 140.066406 56.699219 139.476562 53.679688 C 138.9375 50.925781 138.671875 48.125 138.679688 45.320312 C 138.695312 43.675781 138.835938 42.035156 139.097656 40.410156 C 139.421875 38.417969 139.910156 36.457031 140.554688 34.546875 C 141.285156 32.371094 142.226562 30.265625 143.367188 28.269531 C 144.632812 26.050781 146.152344 23.992188 147.898438 22.136719 C 149.671875 20.257812 151.691406 18.625 153.894531 17.285156 C 156.527344 15.699219 159.363281 14.488281 162.328125 13.675781 C 166.117188 12.671875 170.007812 12.097656 173.925781 11.964844 C 175.226562 11.910156 176.542969 11.90625 177.855469 11.914062 C 179.34375 11.914062 180.839844 11.988281 182.339844 12.078125 C 183.835938 12.171875 185.386719 12.300781 186.914062 12.488281 C 188.496094 12.738281 190.097656 12.953125 191.695312 13.164062 C 193.175781 13.359375 194.660156 13.464844 196.148438 13.476562 Z M 26.832031 15.941406 C 26.847656 15.476562 26.945312 15.015625 27.117188 14.585938 C 27.28125 14.199219 27.667969 13.953125 28.089844 13.980469 C 28.398438 13.988281 28.699219 14.035156 28.988281 14.128906 C 29.34375 14.226562 29.699219 14.304688 30.050781 14.382812 C 30.601562 14.492188 31.164062 14.550781 31.722656 14.566406 C 34.035156 14.644531 36.34375 14.707031 38.652344 14.746094 C 40.257812 14.773438 41.859375 14.777344 43.460938 14.777344 C 44.558594 14.777344 45.652344 14.777344 46.753906 14.777344 L 70.792969 14.777344 C 71.308594 14.753906 71.820312 14.820312 72.308594 14.96875 C 72.734375 15.097656 73.023438 15.484375 73.019531 15.925781 C 73.011719 16.199219 72.980469 16.472656 72.90625 16.738281 C 72.824219 17.070312 72.664062 17.386719 72.445312 17.65625 C 66.242188 27.128906 59.96875 36.5625 53.625 45.941406 C 47.449219 55.089844 41.226562 64.203125 34.949219 73.285156 L 56.921875 73.285156 C 58.789062 73.308594 60.65625 73.222656 62.515625 73.027344 C 63.746094 72.90625 64.960938 72.660156 66.136719 72.289062 C 66.945312 72.035156 67.707031 71.652344 68.386719 71.152344 C 68.96875 70.730469 69.492188 70.230469 69.9375 69.664062 C 70.230469 69.277344 70.46875 68.847656 70.644531 68.394531 C 70.867188 67.871094 71.058594 67.335938 71.214844 66.789062 C 71.355469 66.320312 71.484375 65.84375 71.601562 65.378906 C 71.691406 65.003906 71.839844 64.648438 72.035156 64.320312 C 72.253906 63.992188 72.613281 63.792969 73.003906 63.785156 C 73.429688 63.753906 73.824219 64.007812 73.96875 64.40625 C 74.136719 64.957031 74.207031 65.527344 74.171875 66.101562 C 74.164062 66.898438 74.101562 67.695312 73.972656 68.484375 C 73.851562 69.390625 73.6875 70.289062 73.511719 71.191406 C 73.339844 72.09375 73.132812 72.914062 72.921875 73.769531 C 72.757812 74.433594 72.585938 75.09375 72.402344 75.75 C 72.304688 76.277344 72.144531 76.796875 71.929688 77.296875 C 71.746094 77.707031 71.386719 78.019531 70.945312 78.132812 C 70.4375 78.234375 69.921875 78.269531 69.402344 78.242188 C 62.160156 78.226562 54.917969 78.15625 47.679688 78.050781 C 40.269531 77.933594 32.855469 77.871094 25.445312 77.855469 C 25.011719 77.871094 24.578125 77.820312 24.15625 77.699219 C 23.71875 77.582031 23.414062 77.183594 23.414062 76.726562 C 23.417969 76.386719 23.492188 76.042969 23.617188 75.726562 C 23.90625 75.09375 24.265625 74.488281 24.679688 73.929688 C 31.097656 64.703125 37.464844 55.445312 43.785156 46.15625 C 49.835938 37.261719 55.78125 28.300781 61.621094 19.269531 L 44.300781 19.269531 C 42.800781 19.269531 41.300781 19.269531 39.796875 19.300781 C 38.378906 19.3125 36.960938 19.421875 35.554688 19.621094 C 34.421875 19.757812 33.328125 20.078125 32.300781 20.578125 C 31.394531 21.042969 30.578125 21.671875 29.886719 22.425781 C 29.265625 23.097656 28.746094 23.855469 28.351562 24.683594 C 28.015625 25.335938 27.777344 26.035156 27.644531 26.757812 C 27.605469 27.304688 27.386719 27.824219 27.023438 28.238281 C 26.746094 28.5 26.378906 28.632812 25.996094 28.613281 C 25.625 28.613281 25.296875 28.375 25.179688 28.023438 C 25.089844 27.714844 25.046875 27.398438 25.054688 27.078125 C 25.074219 26.625 25.121094 26.175781 25.1875 25.726562 C 25.304688 24.964844 25.417969 24.199219 25.542969 23.433594 C 25.695312 22.515625 25.84375 21.597656 26 20.683594 C 26.152344 19.773438 26.300781 18.921875 26.457031 18.023438 C 26.578125 17.355469 26.699219 16.683594 26.828125 16.015625 Z M -270.859375 65.488281 C -272.164062 62.484375 -273.152344 59.355469 -273.796875 56.144531 C -274.4375 52.992188 -274.761719 49.792969 -274.757812 46.582031 C -274.742188 43.59375 -274.414062 40.617188 -273.769531 37.699219 C -273.085938 34.566406 -272.078125 31.511719 -270.757812 28.589844 C -269.40625 25.597656 -267.699219 22.785156 -265.683594 20.195312 C -263.644531 17.59375 -261.238281 15.300781 -258.535156 13.390625 C -255.742188 11.441406 -252.640625 9.972656 -249.363281 9.046875 C -245.769531 8.066406 -242.035156 7.6875 -238.320312 7.9375 C -233.707031 8.203125 -229.191406 9.332031 -225.007812 11.265625 C -221.101562 13.105469 -217.609375 15.710938 -214.746094 18.929688 C -211.808594 22.285156 -209.550781 26.179688 -208.097656 30.386719 C -206.488281 35.148438 -205.683594 40.140625 -205.722656 45.164062 C -205.710938 49.21875 -206.203125 53.265625 -207.1875 57.203125 C -208.113281 60.925781 -209.527344 64.515625 -211.398438 67.867188 C -213.191406 71.105469 -215.472656 74.046875 -218.164062 76.597656 C -220.855469 79.140625 -223.960938 81.207031 -227.34375 82.71875 C -230.96875 84.304688 -234.851562 85.230469 -238.808594 85.453125 C -242.492188 85.722656 -246.195312 85.386719 -249.773438 84.460938 C -253.007812 83.625 -256.070312 82.246094 -258.832031 80.375 C -261.503906 78.554688 -263.875 76.339844 -265.867188 73.804688 C -267.882812 71.257812 -269.558594 68.457031 -270.859375 65.480469 Z M -263.988281 43.835938 C -264.039062 49.160156 -263.308594 54.46875 -261.8125 59.582031 C -260.558594 63.800781 -258.539062 67.746094 -255.847656 71.234375 C -253.503906 74.21875 -250.492188 76.613281 -247.058594 78.230469 C -243.710938 79.75 -240.042969 80.4375 -236.371094 80.222656 C -234.933594 80.132812 -233.511719 79.898438 -232.125 79.519531 C -230.441406 79.050781 -228.820312 78.378906 -227.308594 77.511719 C -225.558594 76.515625 -223.96875 75.269531 -222.585938 73.820312 C -220.945312 72.074219 -219.574219 70.097656 -218.519531 67.949219 C -217.199219 65.25 -216.238281 62.394531 -215.667969 59.445312 C -214.90625 55.605469 -214.539062 51.703125 -214.582031 47.789062 C -214.558594 43.722656 -214.980469 39.664062 -215.839844 35.6875 C -216.554688 32.355469 -217.714844 29.132812 -219.285156 26.105469 C -220.652344 23.484375 -222.421875 21.097656 -224.53125 19.023438 C -226.457031 17.136719 -228.710938 15.605469 -231.183594 14.503906 C -233.589844 13.4375 -236.171875 12.820312 -238.804688 12.6875 C -242.167969 12.460938 -245.546875 12.949219 -248.710938 14.125 C -251.785156 15.320312 -254.523438 17.238281 -256.699219 19.714844 C -259.148438 22.597656 -260.96875 25.960938 -262.042969 29.585938 C -263.398438 34.214844 -264.054688 39.023438 -263.984375 43.847656 Z M 107.894531 28.371094 C 107.777344 28.558594 107.679688 28.753906 107.601562 28.960938 C 106.585938 31.863281 105.570312 34.75 104.550781 37.632812 C 103.535156 40.511719 102.527344 43.390625 101.527344 46.257812 C 99.714844 45.820312 97.855469 45.582031 95.984375 45.554688 C 97.777344 40.90625 99.574219 36.246094 101.375 31.574219 C 103.1875 26.90625 105.003906 22.199219 106.828125 17.472656 C 107.109375 16.769531 107.390625 16.0625 107.71875 15.382812 C 107.894531 14.976562 108.140625 14.605469 108.449219 14.285156 C 108.679688 14.039062 109.007812 13.902344 109.34375 13.914062 C 109.980469 13.949219 110.535156 14.355469 110.757812 14.945312 C 111.132812 15.648438 111.464844 16.414062 111.792969 17.152344 C 112.265625 18.210938 112.710938 19.289062 113.160156 20.359375 C 114.003906 22.355469 114.835938 24.378906 115.664062 26.394531 C 116.765625 29.046875 117.871094 31.703125 118.96875 34.371094 C 120.191406 37.378906 121.449219 40.386719 122.6875 43.40625 C 122.96875 44.089844 123.242188 44.765625 123.519531 45.441406 C 121.53125 47.617188 118.886719 49.082031 115.980469 49.621094 C 114.675781 46.164062 113.363281 42.707031 112.070312 39.253906 C 110.777344 35.804688 109.484375 32.371094 108.199219 28.9375 C 108.121094 28.742188 108.023438 28.558594 107.902344 28.386719 Z M 120.605469 61.199219 C 118.988281 61.425781 117.351562 61.449219 115.726562 61.269531 C 109.855469 60.597656 106.035156 56.566406 100.824219 53.335938 C 100.332031 53.03125 99.839844 52.734375 99.339844 52.457031 C 98.308594 55.257812 97.265625 58.058594 96.246094 60.839844 C 95.226562 63.625 94.183594 66.40625 93.167969 69.183594 C 92.816406 70.125 92.519531 71.09375 92.28125 72.074219 C 92.085938 72.855469 91.980469 73.65625 91.957031 74.460938 C 91.953125 74.824219 92.0625 75.179688 92.28125 75.476562 C 92.503906 75.742188 92.792969 75.945312 93.121094 76.058594 C 93.523438 76.191406 93.941406 76.261719 94.363281 76.269531 L 95.125 76.269531 C 95.496094 76.25 95.859375 76.375 96.136719 76.621094 C 96.34375 76.839844 96.457031 77.132812 96.445312 77.433594 C 96.460938 77.832031 96.21875 78.199219 95.84375 78.351562 C 95.492188 78.492188 95.117188 78.546875 94.738281 78.519531 C 94.113281 78.519531 93.46875 78.480469 92.828125 78.4375 L 90.570312 78.289062 C 89.886719 78.238281 89.191406 78.195312 88.515625 78.144531 C 88.09375 78.113281 87.664062 78.078125 87.238281 78.070312 C 86.660156 78.070312 86.058594 78.070312 85.46875 78.105469 C 84.4375 78.136719 83.40625 78.140625 82.382812 78.160156 C 81.214844 78.179688 80.054688 78.160156 78.886719 78.160156 C 78.4375 78.171875 77.992188 78.101562 77.5625 77.953125 C 77.140625 77.832031 76.855469 77.441406 76.855469 77.007812 L 76.855469 76.972656 C 76.875 76.675781 77.007812 76.398438 77.230469 76.203125 C 77.453125 76.023438 77.738281 75.921875 78.023438 75.929688 C 78.410156 75.9375 78.789062 75.921875 79.171875 75.890625 C 79.574219 75.875 79.984375 75.839844 80.382812 75.796875 C 81.425781 75.710938 82.429688 75.347656 83.277344 74.738281 C 84.121094 74.085938 84.816406 73.269531 85.320312 72.339844 C 85.964844 71.199219 86.515625 70.015625 86.972656 68.792969 C 88.15625 65.71875 89.34375 62.644531 90.542969 59.566406 C 91.746094 56.488281 92.941406 53.390625 94.132812 50.277344 C 90.710938 49.273438 87.054688 49.402344 83.703125 50.628906 C 86.5 48.433594 89.929688 47.203125 93.484375 47.101562 C 96.753906 47.085938 99.996094 47.714844 103.019531 48.953125 C 107.265625 50.578125 111.417969 53.628906 115.804688 53.753906 C 119.398438 53.777344 122.816406 52.210938 125.128906 49.472656 C 126.375 52.507812 127.601562 55.554688 128.882812 58.597656 C 130.160156 61.636719 131.429688 64.699219 132.730469 67.746094 C 133.375 69.296875 134.125 70.800781 134.972656 72.253906 C 135.535156 73.191406 136.1875 74.074219 136.925781 74.878906 C 137.410156 75.402344 137.96875 75.84375 138.582031 76.203125 C 139.046875 76.460938 139.535156 76.667969 140.039062 76.824219 C 140.644531 77.015625 141.265625 77.15625 141.894531 77.242188 C 142.417969 77.316406 142.945312 77.359375 143.472656 77.375 C 143.8125 77.375 144.144531 77.453125 144.441406 77.609375 C 144.824219 77.769531 145.078125 78.136719 145.089844 78.550781 C 145.089844 78.550781 145.089844 78.578125 145.089844 78.582031 C 145.085938 78.59375 145.085938 78.605469 145.089844 78.617188 C 145.054688 79.15625 144.59375 79.4375 144.105469 79.554688 C 143.597656 79.671875 143.074219 79.714844 142.550781 79.691406 L 140.644531 79.648438 C 139.527344 79.617188 138.414062 79.585938 137.300781 79.539062 C 135.886719 79.507812 134.472656 79.460938 133.054688 79.394531 C 131.515625 79.328125 129.984375 79.257812 128.457031 79.175781 C 127.71875 79.125 126.964844 79.066406 126.230469 78.96875 C 125.703125 78.898438 124.933594 78.703125 124.894531 78.058594 L 124.894531 78.035156 C 124.867188 77.734375 125.019531 77.4375 125.273438 77.28125 C 125.4375 77.183594 125.613281 77.097656 125.789062 77.03125 C 125.941406 76.972656 126.078125 76.886719 126.191406 76.777344 C 126.324219 76.636719 126.414062 76.460938 126.441406 76.269531 C 126.488281 75.972656 126.4375 75.667969 126.304688 75.398438 C 124.378906 70.667969 122.464844 65.949219 120.558594 61.246094 Z M 7.910156 34.714844 C 7.816406 34.734375 7.726562 34.75 7.632812 34.769531 C 7.632812 34.714844 7.628906 34.664062 7.628906 34.613281 C 7.722656 34.648438 7.816406 34.679688 7.910156 34.714844 Z M 7.910156 34.714844 " fill-opacity="1" fill-rule="evenodd"/></g></g></svg>